<svg width="1600" height="1000" viewBox="0 0 1600 1000" fill="none" xmlns="http://www.w3.org/2000/svg">
  <rect width="1600" height="1000" rx="48" fill="#07111F"/>
  <rect width="1600" height="1000" rx="48" fill="url(#bg)"/>
  <circle cx="1300" cy="180" r="210" fill="#EC4899" fill-opacity="0.14"/>
  <circle cx="260" cy="170" r="170" fill="#38BDF8" fill-opacity="0.12"/>
  <rect x="160" y="180" width="520" height="640" rx="56" fill="#0B1728" stroke="#2B3B55" stroke-width="12"/>
  <rect x="196" y="234" width="448" height="548" rx="40" fill="#10233C"/>
  <rect x="228" y="270" width="384" height="128" rx="28" fill="#173A63"/>
  <circle cx="298" cy="334" r="46" fill="#0EA5E9" fill-opacity="0.3"/>
  <rect x="366" y="304" width="190" height="20" rx="10" fill="#F9A8D4"/>
  <rect x="366" y="342" width="152" height="18" rx="9" fill="#C084FC"/>
  <rect x="228" y="434" width="180" height="248" rx="26" fill="#122F54"/>
  <rect x="432" y="434" width="180" height="248" rx="26" fill="#122F54"/>
  <circle cx="520" cy="556" r="58" fill="#EC4899" fill-opacity="0.22"/>
  <rect x="770" y="214" width="640" height="572" rx="34" fill="#0B1728" stroke="rgba(255,255,255,0.08)"/>
  <rect x="818" y="272" width="544" height="108" rx="24" fill="#102A45"/>
  <rect x="850" y="308" width="180" height="18" rx="9" fill="#F9A8D4"/>
  <rect x="850" y="344" width="140" height="18" rx="9" fill="#173A63"/>
  <rect x="818" y="416" width="252" height="302" rx="24" fill="#102A45"/>
  <rect x="1108" y="416" width="254" height="142" rx="24" fill="#102A45"/>
  <rect x="1108" y="576" width="254" height="142" rx="24" fill="#102A45"/>
  <path d="M874 510C914 468 960 470 998 500C1032 528 1038 562 1042 602" stroke="#38BDF8" stroke-width="12" stroke-linecap="round"/>
  <path d="M1150 480H1318" stroke="#C084FC" stroke-width="16" stroke-linecap="round"/>
  <path d="M1150 528H1260" stroke="#173A63" stroke-width="14" stroke-linecap="round"/>
  <path d="M1150 640H1318" stroke="#38BDF8" stroke-width="16" stroke-linecap="round"/>
  <path d="M1150 688H1260" stroke="#173A63" stroke-width="14" stroke-linecap="round"/>
  <defs>
    <linearGradient id="bg" x1="120" y1="98" x2="1450" y2="884" gradientUnits="userSpaceOnUse">
      <stop stop-color="#0A1A2F"/>
      <stop offset="1" stop-color="#06101D"/>
    </linearGradient>
  </defs>
</svg>
