<svg width="1600" height="1000" viewBox="0 0 1600 1000" fill="none" xmlns="http://www.w3.org/2000/svg">
  <rect width="1600" height="1000" rx="48" fill="#07111F"/>
  <rect width="1600" height="1000" rx="48" fill="url(#bg)"/>
  <circle cx="1310" cy="180" r="220" fill="#14B8A6" fill-opacity="0.14"/>
  <circle cx="260" cy="150" r="160" fill="#3B82F6" fill-opacity="0.12"/>
  <rect x="188" y="174" width="430" height="652" rx="58" fill="#0B1728" stroke="#2B3B55" stroke-width="12"/>
  <rect x="222" y="230" width="362" height="562" rx="42" fill="#10233C"/>
  <rect x="254" y="264" width="298" height="124" rx="28" fill="#173A63"/>
  <rect x="254" y="424" width="298" height="164" rx="28" fill="#122F54"/>
  <rect x="254" y="620" width="298" height="132" rx="28" fill="#102A45"/>
  <rect x="752" y="206" width="662" height="588" rx="34" fill="#0B1728" stroke="rgba(255,255,255,0.08)"/>
  <rect x="800" y="260" width="280" height="236" rx="26" fill="#102A45"/>
  <rect x="1112" y="260" width="254" height="236" rx="26" fill="#102A45"/>
  <rect x="800" y="530" width="566" height="216" rx="26" fill="#102A45"/>
  <rect x="842" y="304" width="188" height="22" rx="11" fill="#2DD4BF"/>
  <rect x="842" y="346" width="136" height="18" rx="9" fill="#173A63"/>
  <rect x="1148" y="304" width="170" height="22" rx="11" fill="#60A5FA"/>
  <rect x="1148" y="346" width="122" height="18" rx="9" fill="#173A63"/>
  <path d="M854 626H1316" stroke="#173A63" stroke-width="20" stroke-linecap="round"/>
  <path d="M854 682H1236" stroke="#2DD4BF" stroke-width="20" stroke-linecap="round"/>
  <path d="M854 736H1116" stroke="#173A63" stroke-width="20" stroke-linecap="round"/>
  <defs>
    <linearGradient id="bg" x1="118" y1="98" x2="1460" y2="884" gradientUnits="userSpaceOnUse">
      <stop stop-color="#0A1A2F"/>
      <stop offset="1" stop-color="#06101D"/>
    </linearGradient>
  </defs>
</svg>
