<svg width="1600" height="1000" viewBox="0 0 1600 1000" fill="none" xmlns="http://www.w3.org/2000/svg">
  <rect width="1600" height="1000" rx="48" fill="#06101D"/>
  <rect width="1600" height="1000" rx="48" fill="url(#bg)"/>
  <circle cx="1260" cy="180" r="210" fill="#3B82F6" fill-opacity="0.18"/>
  <circle cx="240" cy="160" r="150" fill="#22D3EE" fill-opacity="0.12"/>
  <rect x="118" y="118" width="1364" height="764" rx="34" fill="#0A1728" stroke="rgba(255,255,255,0.08)"/>
  <rect x="118" y="118" width="1364" height="72" rx="34" fill="#10233C"/>
  <rect x="164" y="224" width="412" height="606" rx="28" fill="#0D223A"/>
  <rect x="204" y="264" width="332" height="30" rx="15" fill="#173A63"/>
  <rect x="204" y="332" width="332" height="202" rx="22" fill="#102A45"/>
  <circle cx="286" cy="412" r="46" fill="#123B68"/>
  <rect x="358" y="382" width="118" height="18" rx="9" fill="#2F74A8"/>
  <rect x="358" y="420" width="92" height="18" rx="9" fill="#1D4ED8"/>
  <rect x="204" y="572" width="332" height="208" rx="22" fill="#112843"/>
  <rect x="620" y="224" width="356" height="286" rx="28" fill="#0D223A"/>
  <rect x="664" y="272" width="268" height="24" rx="12" fill="#173A63"/>
  <rect x="664" y="332" width="268" height="132" rx="20" fill="#102A45"/>
  <path d="M696 418L748 372L800 396L864 324" stroke="#38BDF8" stroke-width="12" stroke-linecap="round" stroke-linejoin="round"/>
  <rect x="1018" y="224" width="342" height="286" rx="28" fill="#0D223A"/>
  <rect x="1058" y="272" width="262" height="24" rx="12" fill="#173A63"/>
  <rect x="1058" y="332" width="262" height="24" rx="12" fill="#173A63"/>
  <rect x="1058" y="388" width="262" height="24" rx="12" fill="#173A63"/>
  <rect x="1058" y="444" width="190" height="24" rx="12" fill="#173A63"/>
  <rect x="620" y="548" width="740" height="282" rx="28" fill="#0D223A"/>
  <rect x="662" y="590" width="660" height="196" rx="24" fill="#102A45"/>
  <rect x="700" y="628" width="140" height="122" rx="18" fill="#143457"/>
  <rect x="866" y="628" width="140" height="122" rx="18" fill="#143457"/>
  <rect x="1032" y="628" width="140" height="122" rx="18" fill="#143457"/>
  <rect x="1198" y="628" width="84" height="122" rx="18" fill="#143457"/>
  <defs>
    <linearGradient id="bg" x1="146" y1="94" x2="1440" y2="882" gradientUnits="userSpaceOnUse">
      <stop stop-color="#0A1A2F"/>
      <stop offset="1" stop-color="#06101D"/>
    </linearGradient>
  </defs>
</svg>
